P3
2 2
255
100 0 0   255 0 80   
0 255 0   0 0 0   
