P3
2 2
255
33 33 33  111 111 111  
85 85 85  0 0 0  
